<svg width="120" height="130" viewBox="0 0 120 130" fill="none" xmlns="http://www.w3.org/2000/svg">
<path d="M74.9576 27.3482C75.3879 29.3816 77.3491 30.7232 79.5054 30.3272C81.5837 29.9021 82.9454 27.9779 82.5425 25.8664C82.0588 23.5917 79.7447 22.346 77.6286 22.9785C75.6349 23.6018 74.5972 25.4704 74.9576 27.3482Z" fill="#FFE8E8" fill-opacity="0.3"/>
<path d="M116.14 28.6182L102.295 26.7499C98.6036 11.4623 84.6036 0.306641 68.4375 0.306641C49.2462 0.306641 33.6328 15.7344 33.6328 34.6978C33.6328 45.6385 38.9463 55.7834 47.7674 62.1691C35.7858 72.7573 16.5545 70.8147 7.10958 58.2525C5.73363 56.4225 3.03717 56.1863 1.35159 57.7372C-7.25831 65.6588 -12 75.4378 -12 85.2731C-12 109.814 15.2944 129.779 48.8438 129.779C82.2511 129.779 109.43 109.814 109.43 85.2731C109.43 74.643 104.377 64.6053 95.1049 56.6346C96.183 55.3761 97.1635 54.0432 98.0447 52.6453C110.214 52.4963 120 44.2687 120 32.4113C120 30.3185 118.272 28.6217 116.14 28.6182ZM86.6623 110.951C76.5864 118.201 63.1557 122.193 48.8438 122.193C8.99496 122.193 -18.8655 91.328 3.80313 66.137C18.4103 80.9391 43.6016 79.9744 56.7978 63.7969C58.3037 61.9509 57.738 59.212 55.6136 58.0884C46.8261 53.4403 41.3672 44.4776 41.3672 34.6978C41.3672 19.9175 53.5109 7.89294 68.4375 7.89294C80.8576 7.89294 91.6368 16.3802 94.6645 28.075C90.2711 30.296 87.2578 34.7884 87.2578 39.9612V42.3984C87.2578 45.3682 88.5531 48.0459 90.6169 49.9203C89.5072 51.4732 88.2287 52.9095 86.7904 54.2113C85.0125 55.8204 85.1613 58.6235 87.1039 60.0416C106.722 74.3646 106.549 96.643 86.6623 110.951ZM97.7116 45.0658C96.2122 45.0658 94.9922 43.8692 94.9922 42.3984V39.9612C94.9922 36.8503 97.5108 34.3059 100.653 34.1858L111.847 35.6965C110.197 41.8611 103.921 45.0658 97.7116 45.0658Z" fill="#FFE8E8" fill-opacity="0.3"/>
<path d="M75.0696 75.2525C68.7187 71.8642 61.4994 72.8737 56.2287 77.8875C48.9787 84.7839 35.2012 86.2008 27.6342 86.4314C25.1195 86.508 23.3491 88.8848 24.0333 91.2555C26.5135 99.8526 36.8945 108.556 51.9374 108.556C59.6511 108.556 66.9576 106.907 72.5106 103.913C78.5818 100.639 82.1664 96.0245 82.6034 90.9187C83.3918 81.713 78.9417 77.3182 75.0696 75.2525ZM74.8964 90.2837C74.4545 95.4439 65.1237 100.969 51.9374 100.969C43.1367 100.969 37.2003 97.3484 34.0171 93.6172C42.8134 92.7427 54.3647 90.2286 61.6134 83.3334C64.49 80.597 67.9563 80.0936 71.3741 81.9165C73.2613 82.9238 75.3671 84.7847 74.8964 90.2837Z" fill="#FFE8E8" fill-opacity="0.3"/>
</svg>
